{"title":"Cider With Rosie 2015 720p BRRip XviD","uid":12518911,"size":2888497577,"categoryP":"video","categoryS":"hd___movies","magnet":"?xt=urn:btih:28a4574003e6fb20f7d70a751031ce27a1455767&amp;dn=Cider+With+Rosie+2015+720p+BRRip+XviD&amp;tr=udp%3A%2F%2Ftracker.leechers-paradise.org%3A6969&amp;tr=udp%3A%2F%2Fzer0day.ch%3A1337&amp;tr=udp%3A%2F%2Fopen.demonii.com%3A1337&amp;tr=udp%3A%2F%2Ftracker.coppersurfer.tk%3A6969&amp;tr=udp%3A%2F%2Fexodus.desync.com%3A6969","seeders":0,"leechers":1,"uploader":"Joker__TPB","files":5,"time":1443819712,"description":"===================================================================================\r\nIn 1918| with her husband working in the War office - and subsequently leaving the family - devoted mother Annie Lee takes her step-daughters and her own children to\r\nlive in the idyllic Gloucestershire countryside| the youngest being the sickly Laurie| known as Loll. Here they witness two feuding matrons| Granny Trill and Granny\r\nWallon and shelter a young army deserter hiding in the woods until his capture. At school Loll and his classmates are terrorized by the formidable teacher Crabby\r\nuntil hulking Spadge Hopkins literally puts her in her place. Far more important to Loll's schooldays are the captivating Burdock sisters| Jo and Rosie| and| as he\r\ngrows into adolescence and beyond| eventually leaving home to seek his fortune| he samples the delights of cider with Rosie.\r\n===================================================================================\r\nVideo\r\nID                                       : 0\r\nFormat                                   : MPEG-4 Visual\r\nFormat profile                           :   \r\nFormat settings, BVOP                    : No\r\nFormat settings, QPel                    : No\r\nFormat settings, GMC                     : No warppoints\r\nFormat settings, Matrix                  : Default (H.263)\r\nCodec ID                                 : XVID\r\nCodec ID/Hint                            : XviD\r\nDuration                                 : 1h 29mn\r\nBit rate                                 : 3 672 Kbps\r\nWidth                                    : 1 280 pixels\r\nHeight                                   : 720 pixels\r\nDisplay aspect ratio                     : 16:9\r\nFrame rate                               : 25.000 fps\r\nColor space                              : YUV\r\nChroma subsampling                       : 4:2:0\r\nBit depth                                : 8 bits\r\nScan type                                : Progressive\r\nCompression mode                         : Lossy\r\nBits/(Pixel*Frame)                       : 0.159\r\nStream size                              : 2.28 GiB (85%)\r\nWriting library                          : Lavc56.60.100\r\n\r\nAudio\r\nID                                       : 1\r\nFormat                                   : AC-3\r\nFormat/Info                              : Audio Coding 3\r\nMode extension                           : CM (complete main)\r\nFormat settings, Endianness              : Big\r\nCodec ID                                 : 2000\r\nDuration                                 : 1h 29mn\r\nBit rate mode                            : Constant\r\nBit rate                                 : 640 Kbps\r\nChannel(s)                               : 6 channels\r\nChannel(s)_Original                      : 5 channels\r\nChannel positions                        : Front: L C R, Side: L R\r\nSampling rate                            : 48.0 KHz\r\nCompression mode                         : Lossy\r\nStream size                              : 408 MiB (15%)\r\nAlignment                                : Aligned on interleaves\r\nInterleave, duration                     : 40 ms (1.00 video frame)\r\nInterleave, preload duration             : 512 ms\r\n===================================================================================","torrent":{"xt":"urn:btih:28a4574003e6fb20f7d70a751031ce27a1455767","amp;dn":"Cider+With+Rosie+2015+720p+BRRip+XviD","amp;tr":["udp%3A%2F%2Ftracker.leechers-paradise.org%3A6969","udp%3A%2F%2Fzer0day.ch%3A1337","udp%3A%2F%2Fopen.demonii.com%3A1337","udp%3A%2F%2Ftracker.coppersurfer.tk%3A6969","udp%3A%2F%2Fexodus.desync.com%3A6969"],"infoHash":"28a4574003e6fb20f7d70a751031ce27a1455767","infoHashBuffer":{"type":"Buffer","data":[40,164,87,64,3,230,251,32,247,215,10,117,16,49,206,39,161,69,87,103]},"announce":[],"urlList":[]}}